<?xml version="1.0" encoding="UTF-8" standalone="no"?>
<!DOCTYPE svg PUBLIC "-//W3C//DTD SVG 1.1//EN" "http://www.w3.org/Graphics/SVG/1.1/DTD/svg11.dtd">
<svg version="1.1" xmlns="http://www.w3.org/2000/svg" xmlns:xlink="http://www.w3.org/1999/xlink" preserveAspectRatio="xMidYMid meet" viewBox="-1.0000001049592329 -1.000000000000007 40.695506209918484 247.36217100000002" width="36.7" height="243.36"><defs><path d="M3.11 0C3.11 0 -0.19 42.95 0.01 60.46C0.21 79.04 13 73.94 13.6 86.26C15.03 115.99 3.28 180.46 4.83 227.85C5.24 240.34 11.57 243.36 18.32 243.36C25.08 243.36 31.45 240.34 31.86 227.85C33.42 180.46 21.66 115.99 23.1 86.26C23.69 73.94 36.48 79.04 36.69 60.46C36.88 42.95 33.59 0 33.59 0C33.4 0 32.44 0 30.73 0C29.96 36.3 29.54 56.47 29.45 60.51C29.45 62 27.97 61.99 27.97 61.99C27.97 61.99 26.55 61.98 26.55 60.51C26.4 56.47 25.68 36.3 24.38 0L21.52 0C20.49 36.3 19.92 56.47 19.8 60.51C19.8 62.01 18.32 61.99 18.32 61.99C18.32 61.99 16.9 62 16.9 60.51C16.78 56.47 16.21 36.3 15.17 0L12.32 0C10.99 36.3 10.25 56.47 10.1 60.51C10.1 62.03 8.72 61.99 8.72 61.99C8.72 61.99 7.25 61.98 7.25 60.51C7.16 56.47 6.73 36.3 5.97 0C4.44 0 3.49 0 3.11 0Z" id="dZBJRSne"></path></defs><g><g><use xlink:href="#dZBJRSne" opacity="1" fill="#2b2b2b" fill-opacity="1"></use><g><use xlink:href="#dZBJRSne" opacity="1" fill-opacity="0" stroke="#000000" stroke-width="1" stroke-opacity="0"></use></g></g></g></svg>