<svg width="300" height="50" viewBox="0 0 300 50" fill="none" xmlns="http://www.w3.org/2000/svg">
<path d="M98.8064 22.5513V28.2022C98.8064 33.4079 94.5696 37.6447 89.3626 37.6447H75.1458L72.0754 23.8621L75.1458 8.70117H86.4062L98.8064 22.5513Z" fill="#F6EBD8"/>
<path d="M75.1457 8.70117V37.6447H60.929C55.7219 37.6447 51.4851 33.4079 51.4851 28.2022V21.6624L66.8086 8.70117H75.1457Z" fill="#FFFDF5"/>
<path d="M110.331 17.1155L104.548 25.7903C101.772 23.7553 98.8219 22.023 95.7616 20.6151C95.7616 20.6151 94.7881 18.9211 94.1821 18.6709C93.5063 18.392 91.9146 19.0373 91.9146 19.0373C90.2216 18.425 88.5042 17.9097 86.7721 17.4947C86.7721 17.4947 85.6535 15.8362 84.9791 15.7059C84.2813 15.5709 82.6566 16.7025 82.6566 16.7025C80.5371 16.3938 78.4076 16.2362 76.2856 16.2362H75.1457L74.0403 10.9988L75.1457 4C76.2491 4 77.3499 4.03404 78.4469 4.10185C78.4469 4.10185 81.1251 5.94142 82.1625 6.06726C83.0776 6.17834 84.3056 4.79209 84.3056 4.79209C86.436 5.16422 88.5442 5.66673 90.622 6.29853C90.622 6.29853 93.4391 8.52718 93.9544 8.70125C95.2792 9.14836 96.0819 8.28805 96.0819 8.28805C100.112 10.0105 103.91 12.2224 107.413 14.891L110.331 17.1155Z" fill="#FF415B"/>
<path d="M75.1459 4V15.8123L73.474 16.2362H73.3183C71.542 16.2362 69.7753 16.3359 68.0254 16.533C68.0254 16.533 66.4215 15.0429 65.7873 15.1408C65.0464 15.2552 63.9038 17.1836 63.9038 17.1836C62.0647 17.5584 60.251 18.043 58.4718 18.6347C58.4718 18.6347 56.8454 18.0071 56.1668 18.2685C55.5087 18.5219 54.4615 20.1757 54.4615 20.1757C52.1435 21.1905 49.8997 22.3961 47.7515 23.7862L45.0322 25.5862L40.0498 17.0466L42.878 14.891C44.5221 13.6387 46.231 12.4869 47.9984 11.439C47.9984 11.439 50.8657 11.8777 51.4852 11.5431C52.2204 11.1459 52.0698 9.25904 52.0698 9.25904C53.3139 8.66101 54.5822 8.11108 55.8728 7.61036C55.8728 7.61036 58.9076 8.13341 59.663 7.87843C60.6326 7.55096 61.0469 5.89994 61.0469 5.89994C62.743 5.43367 64.458 5.05258 66.1872 4.75736L70.6307 5.25835L72.3894 4.07098C73.3059 4.02371 74.2249 4 75.1459 4V4Z" fill="#FF7C48"/>
<path d="M110.291 33.51V35.5774C110.291 41.2765 105.654 45.9144 99.9545 45.9144H75.1458L72.0754 39.7122L75.1458 33.51H110.291Z" fill="#04303E"/>
<path d="M75.1457 33.51V45.9144H50.337C44.6379 45.9144 40 41.2765 40 35.5774V33.51H75.1457Z" fill="#005457"/>
<path d="M53.3097 10.1392L52.0697 9.25928C50.6815 9.92663 49.3246 10.6556 47.9995 11.4412L50.9118 13.5075C53.089 15.0627 54.3873 17.544 54.4612 20.1757C55.7754 19.6002 57.1137 19.0868 58.4717 18.6352C57.9903 15.2635 56.1555 12.172 53.3097 10.1392V10.1392Z" fill="#FFB89C"/>
<path d="M55.8733 7.6119C57.1017 8.16431 57.9946 8.80175 58.7948 9.37387C59.0958 9.58902 59.38 9.79231 59.6721 9.9854C62.3725 11.7703 63.9084 14.4364 63.9039 17.1846C65.2649 16.9072 66.6399 16.6902 68.0254 16.5341C67.819 12.6419 65.6445 8.97651 61.952 6.53603C61.7231 6.38469 61.4689 6.2029 61.1997 6.01049C61.1501 5.97494 61.0987 5.93841 61.0473 5.90161C60.0642 6.17189 59.0871 6.46904 58.1177 6.79638C57.3622 7.05122 56.6144 7.32425 55.8733 7.6119V7.6119Z" fill="#FFB89C"/>
<path d="M77.6224 16.2583C77.1772 16.2445 76.7307 16.2362 76.2855 16.2362H75.1457L74.0403 12.8361L75.1457 7.19897C77.0132 10.001 77.8787 13.1627 77.6224 16.2583V16.2583Z" fill="#FF936A"/>
<path d="M75.1456 7.19897V16.2362H73.4738C73.8418 13.2551 72.6813 10.1788 70.1687 7.60004C69.4465 6.85992 67.5886 5.40861 66.1152 4.77185C68.2074 4.41212 70.3203 4.17782 72.4456 4.07031C72.7212 4.31426 72.9542 4.53341 73.1306 4.71396C73.8955 5.49957 74.5695 6.33204 75.1456 7.19897V7.19897Z" fill="#FFB89C"/>
<path d="M86.7715 17.4966C87.9629 13.938 87.4931 9.93817 85.3709 6.52366C85.267 6.35648 85.1542 6.17096 85.0332 5.97194C84.8146 5.61235 84.5707 5.21224 84.3051 4.7949C82.3683 4.45654 80.4138 4.22375 78.4468 4.10205C79.5571 4.92487 80.7646 6.91012 81.5 8.11982C81.6288 8.33139 81.7487 8.52862 81.8591 8.70628C83.4231 11.2226 83.6934 14.1772 82.6564 16.7028C84.034 16.9036 85.4071 17.1696 86.7715 17.4966V17.4966Z" fill="#FF936A"/>
<path d="M90.6211 6.30127C91.5043 7.46769 92.1827 9.63763 92.5624 10.8523L92.6685 11.1907C93.5199 13.8875 93.2286 16.7074 91.9143 19.0378C93.2125 19.5074 94.4957 20.0354 95.7606 20.6173C97.4259 17.3917 97.7598 13.5832 96.6116 9.94595L96.509 9.61889C96.3825 9.21381 96.2408 8.76285 96.0815 8.28928C94.8016 7.74224 93.4988 7.24345 92.1738 6.7962C91.6584 6.62227 91.1404 6.45908 90.6211 6.30127V6.30127Z" fill="#FF936A"/>
<path d="M225.206 15.4699C232.455 15.4699 238.331 12.9978 238.331 9.94832C238.331 6.89884 232.455 4.42676 225.206 4.42676C217.958 4.42676 212.082 6.89884 212.082 9.94832C212.082 12.9978 217.958 15.4699 225.206 15.4699Z" fill="#F9FBFC"/>
<path d="M236.709 7.48828C236.526 7.48828 236.378 7.63643 236.378 7.81913C236.378 8.00183 236.526 8.15008 236.709 8.15008C236.891 8.15008 237.04 8.00193 237.04 7.81913C237.04 7.63643 236.892 7.48828 236.709 7.48828Z" fill="#EAA895"/>
<path d="M237.889 8.52361C237.865 8.51817 237.841 8.51465 237.815 8.51465C237.633 8.51465 237.485 8.66279 237.485 8.84549C237.485 9.02819 237.633 9.17645 237.815 9.17645C237.956 9.17645 238.075 9.08824 238.123 8.96452C238.06 8.81531 237.981 8.66834 237.889 8.52361Z" fill="#EAA895"/>
<path d="M236.709 10.2831C236.891 10.2831 237.04 10.135 237.04 9.95218C237.04 9.76948 236.891 9.62134 236.709 9.62134C236.526 9.62134 236.378 9.76948 236.378 9.95218C236.378 10.135 236.526 10.2831 236.709 10.2831Z" fill="#EAA895"/>
<path d="M237.815 10.6477C237.633 10.6477 237.485 10.7958 237.485 10.9786C237.485 11.1613 237.633 11.3095 237.815 11.3095C237.861 11.3095 237.904 11.3002 237.944 11.2836C238.018 11.1575 238.083 11.0299 238.136 10.9006C238.101 10.7556 237.971 10.6477 237.815 10.6477V10.6477Z" fill="#EAA895"/>
<path d="M236.709 12.4162C236.891 12.4162 237.04 12.268 237.04 12.0852C237.04 11.9025 236.891 11.7544 236.709 11.7544C236.526 11.7544 236.378 11.9025 236.378 12.0852C236.378 12.268 236.526 12.4162 236.709 12.4162Z" fill="#EAA895"/>
<path d="M234.575 7.48828C234.393 7.48828 234.245 7.63643 234.245 7.81913C234.245 8.00183 234.393 8.15008 234.575 8.15008C234.758 8.15008 234.906 8.00193 234.906 7.81913C234.906 7.63643 234.758 7.48828 234.575 7.48828Z" fill="#EAA895"/>
<path d="M235.682 8.51465C235.5 8.51465 235.352 8.66279 235.352 8.84549C235.352 9.02819 235.5 9.17645 235.682 9.17645C235.865 9.17645 236.013 9.0283 236.013 8.84549C236.013 8.66269 235.865 8.51465 235.682 8.51465Z" fill="#EAA895"/>
<path d="M234.575 9.62134C234.393 9.62134 234.245 9.76948 234.245 9.95218C234.245 10.1349 234.393 10.2831 234.575 10.2831C234.758 10.2831 234.906 10.135 234.906 9.95218C234.906 9.76948 234.758 9.62134 234.575 9.62134Z" fill="#EAA895"/>
<path d="M235.682 10.6477C235.5 10.6477 235.352 10.7958 235.352 10.9786C235.352 11.1613 235.5 11.3095 235.682 11.3095C235.865 11.3095 236.013 11.1614 236.013 10.9786C236.013 10.7957 235.865 10.6477 235.682 10.6477Z" fill="#EAA895"/>
<path d="M234.575 11.7544C234.393 11.7544 234.245 11.9025 234.245 12.0852C234.245 12.2679 234.393 12.4162 234.575 12.4162C234.758 12.4162 234.906 12.268 234.906 12.0852C234.906 11.9026 234.758 11.7544 234.575 11.7544Z" fill="#EAA895"/>
<path d="M235.682 12.7808C235.5 12.7808 235.352 12.9289 235.352 13.1116C235.352 13.2221 235.406 13.3193 235.489 13.3793C235.671 13.2832 235.844 13.1845 236.01 13.0834C235.996 12.9141 235.856 12.7808 235.682 12.7808Z" fill="#EAA895"/>
<path d="M232.442 6.01678C232.625 6.01678 232.773 5.86863 232.773 5.68583C232.773 5.50312 232.625 5.35498 232.442 5.35498C232.26 5.35498 232.112 5.50312 232.112 5.68583C232.112 5.86863 232.26 6.01678 232.442 6.01678Z" fill="#EAA895"/>
<path d="M233.549 6.38135C233.367 6.38135 233.219 6.52949 233.219 6.71219C233.219 6.89489 233.367 7.04314 233.549 7.04314C233.732 7.04314 233.88 6.895 233.88 6.71219C233.88 6.52939 233.732 6.38135 233.549 6.38135Z" fill="#EAA895"/>
<path d="M232.616 8.09984C232.71 8.04161 232.773 7.93815 232.773 7.81913C232.773 7.63643 232.625 7.48828 232.443 7.48828C232.327 7.48828 232.226 7.54726 232.167 7.63643C232.333 7.78734 232.483 7.94199 232.616 8.09984V8.09984Z" fill="#EAA895"/>
<path d="M233.549 8.51465C233.367 8.51465 233.219 8.66279 233.219 8.84549C233.219 9.02819 233.367 9.17645 233.549 9.17645C233.732 9.17645 233.88 9.0283 233.88 8.84549C233.88 8.66269 233.732 8.51465 233.549 8.51465Z" fill="#EAA895"/>
<path d="M233.549 10.6477C233.367 10.6477 233.219 10.7958 233.219 10.9786C233.219 11.1613 233.367 11.3095 233.549 11.3095C233.732 11.3095 233.88 11.1614 233.88 10.9786C233.88 10.7957 233.732 10.6477 233.549 10.6477Z" fill="#EAA895"/>
<path d="M232.44 11.7573C232.257 11.7573 232.109 11.9055 232.109 12.0882C232.109 12.2709 232.257 12.419 232.44 12.419C232.622 12.419 232.771 12.2709 232.771 12.0882C232.771 11.9054 232.622 11.7573 232.44 11.7573Z" fill="#EAA895"/>
<path d="M231.421 12.7834C231.238 12.7834 231.09 12.9316 231.09 13.1143C231.09 13.297 231.238 13.4452 231.421 13.4452C231.604 13.4452 231.752 13.2971 231.752 13.1143C231.752 12.9315 231.604 12.7834 231.421 12.7834Z" fill="#EAA895"/>
<path d="M228.176 13.8855C227.993 13.8855 227.845 14.0336 227.845 14.2163C227.845 14.399 227.993 14.5473 228.176 14.5473C228.359 14.5473 228.507 14.3992 228.507 14.2163C228.507 14.0336 228.359 13.8855 228.176 13.8855Z" fill="#EAA895"/>
<path d="M232.164 12.2626C232.223 12.3547 232.325 12.4161 232.443 12.4161C232.625 12.4161 232.773 12.268 232.773 12.0852C232.773 11.9643 232.708 11.8597 232.611 11.802C232.478 11.959 232.329 12.1127 232.164 12.2626V12.2626Z" fill="#EAA895"/>
<path d="M233.549 12.7808C233.367 12.7808 233.219 12.9289 233.219 13.1116C233.219 13.2943 233.367 13.4426 233.549 13.4426C233.732 13.4426 233.88 13.2944 233.88 13.1116C233.88 12.9288 233.732 12.7808 233.549 12.7808Z" fill="#EAA895"/>
<path d="M232.774 14.2183C232.774 14.0356 232.625 13.8875 232.443 13.8875C232.26 13.8875 232.112 14.0356 232.112 14.2183C232.112 14.401 232.26 14.5492 232.443 14.5492C232.454 14.5492 232.464 14.547 232.475 14.5459C232.513 14.5353 232.551 14.5246 232.589 14.5138C232.698 14.4598 232.774 14.3484 232.774 14.2183V14.2183Z" fill="#EAA895"/>
<path d="M230.64 5.68583C230.64 5.50312 230.492 5.35498 230.309 5.35498C230.127 5.35498 229.979 5.50312 229.979 5.68583C229.979 5.86853 230.127 6.01678 230.309 6.01678C230.492 6.01678 230.64 5.86863 230.64 5.68583Z" fill="#EAA895"/>
<path d="M228.505 5.69364C228.505 5.51094 228.357 5.36279 228.174 5.36279C227.991 5.36279 227.843 5.51094 227.843 5.69364C227.843 5.87634 227.991 6.02459 228.174 6.02459C228.357 6.02448 228.505 5.87634 228.505 5.69364Z" fill="#EAA895"/>
<path d="M231.742 6.71195C231.742 6.52925 231.594 6.3811 231.411 6.3811C231.229 6.3811 231.081 6.52925 231.081 6.71195C231.081 6.89465 231.229 7.0429 231.411 7.0429C231.594 7.0429 231.742 6.89476 231.742 6.71195Z" fill="#EAA895"/>
<path d="M232.768 7.82157C232.768 7.63887 232.62 7.49072 232.438 7.49072C232.255 7.49072 232.107 7.63887 232.107 7.82157C232.107 8.00427 232.255 8.15252 232.438 8.15252C232.62 8.15252 232.768 8.00438 232.768 7.82157Z" fill="#EAA895"/>
<path d="M231.416 7.04314C231.599 7.04314 231.747 6.895 231.747 6.71219C231.747 6.52939 231.599 6.38135 231.416 6.38135C231.234 6.38135 231.085 6.52949 231.085 6.71219C231.085 6.76381 231.098 6.81213 231.119 6.85564C231.218 6.91687 231.314 6.97905 231.407 7.04208C231.41 7.04219 231.413 7.04314 231.416 7.04314V7.04314Z" fill="#EAA895"/>
<path d="M231.085 13.1117C231.085 13.2944 231.234 13.4427 231.416 13.4427C231.599 13.4427 231.747 13.2946 231.747 13.1117C231.747 12.9571 231.641 12.8281 231.497 12.792C231.368 12.8824 231.232 12.9712 231.091 13.0582C231.088 13.0757 231.085 13.0934 231.085 13.1117V13.1117Z" fill="#EAA895"/>
<path d="M229.979 14.2183C229.979 14.401 230.127 14.5492 230.309 14.5492C230.492 14.5492 230.64 14.4011 230.64 14.2183C230.64 14.0356 230.492 13.8875 230.309 13.8875C230.127 13.8875 229.979 14.0357 229.979 14.2183Z" fill="#EAA895"/>
<path d="M228.176 5.35498C228.076 5.35498 227.987 5.40052 227.927 5.47102C228.123 5.53086 228.316 5.59293 228.504 5.65714C228.49 5.48809 228.349 5.35498 228.176 5.35498Z" fill="#EAA895"/>
<path d="M228.176 14.5492C228.352 14.5492 228.494 14.4119 228.505 14.2388C228.315 14.3036 228.12 14.3663 227.921 14.4268C227.982 14.5009 228.073 14.5492 228.176 14.5492V14.5492Z" fill="#EAA895"/>
<path d="M227.481 15.2447C227.481 15.062 227.333 14.9138 227.15 14.9138C226.967 14.9138 226.819 15.062 226.819 15.2447C226.819 15.3114 226.839 15.3735 226.873 15.4254C227.066 15.4152 227.257 15.4029 227.446 15.3892C227.468 15.3453 227.481 15.2967 227.481 15.2447V15.2447Z" fill="#EAA895"/>
<path d="M225.206 12.9666C229.719 12.9666 233.378 11.6152 233.378 9.94815C233.378 8.2811 229.719 6.92969 225.206 6.92969C220.693 6.92969 217.034 8.2811 217.034 9.94815C217.034 11.6152 220.693 12.9666 225.206 12.9666Z" fill="#EAA895"/>
<path d="M211.603 29.1159C218.852 29.1159 224.728 26.6438 224.728 23.5943C224.728 20.5448 218.852 18.0728 211.603 18.0728C204.354 18.0728 198.478 20.5448 198.478 23.5943C198.478 26.6438 204.354 29.1159 211.603 29.1159Z" fill="#F9FBFC"/>
<path d="M211.603 26.6126C216.116 26.6126 219.775 25.2612 219.775 23.5941C219.775 21.9271 216.116 20.5757 211.603 20.5757C207.09 20.5757 203.431 21.9271 203.431 23.5941C203.431 25.2612 207.09 26.6126 211.603 26.6126Z" fill="#EAA895"/>
<path d="M238.81 29.1159C246.058 29.1159 251.935 26.6438 251.935 23.5943C251.935 20.5448 246.058 18.0728 238.81 18.0728C231.561 18.0728 225.685 20.5448 225.685 23.5943C225.685 26.6438 231.561 29.1159 238.81 29.1159Z" fill="#F9FBFC"/>
<path d="M251.31 22.751C251.31 22.9337 251.458 23.0819 251.641 23.0819C251.724 23.0819 251.8 23.0497 251.858 22.9983C251.808 22.8025 251.734 22.6098 251.637 22.4207C251.456 22.4228 251.31 22.5697 251.31 22.751V22.751Z" fill="#EAA895"/>
<path d="M251.641 24.5532C251.458 24.5532 251.31 24.7014 251.31 24.8841C251.31 24.9819 251.353 25.0688 251.42 25.1294C251.546 24.9458 251.651 24.7584 251.732 24.5674C251.703 24.5592 251.672 24.5532 251.641 24.5532V24.5532Z" fill="#EAA895"/>
<path d="M249.177 20.618C249.177 20.8007 249.325 20.9489 249.507 20.9489C249.69 20.9489 249.838 20.8008 249.838 20.618C249.838 20.6114 249.837 20.6053 249.836 20.5989C249.688 20.5027 249.533 20.4086 249.372 20.3167C249.257 20.3685 249.177 20.4837 249.177 20.618Z" fill="#EAA895"/>
<path d="M250.614 21.3135C250.432 21.3135 250.283 21.4616 250.283 21.6443C250.283 21.827 250.432 21.9753 250.614 21.9753C250.797 21.9753 250.945 21.8271 250.945 21.6443C250.945 21.4615 250.797 21.3135 250.614 21.3135Z" fill="#EAA895"/>
<path d="M249.507 22.4199C249.325 22.4199 249.177 22.5681 249.177 22.7508C249.177 22.9335 249.325 23.0817 249.507 23.0817C249.69 23.0817 249.838 22.9336 249.838 22.7508C249.838 22.5682 249.69 22.4199 249.507 22.4199Z" fill="#EAA895"/>
<path d="M250.614 23.4465C250.432 23.4465 250.283 23.5947 250.283 23.7774C250.283 23.9601 250.432 24.1083 250.614 24.1083C250.797 24.1083 250.945 23.9602 250.945 23.7774C250.945 23.5946 250.797 23.4465 250.614 23.4465Z" fill="#EAA895"/>
<path d="M249.507 24.5532C249.325 24.5532 249.177 24.7014 249.177 24.8841C249.177 25.0668 249.325 25.2149 249.507 25.2149C249.69 25.2149 249.838 25.0668 249.838 24.8841C249.838 24.7015 249.69 24.5532 249.507 24.5532Z" fill="#EAA895"/>
<path d="M250.614 25.5796C250.432 25.5796 250.283 25.7277 250.283 25.9104C250.283 26.0186 250.336 26.1136 250.416 26.174C250.591 26.0349 250.753 25.8925 250.9 25.7467C250.843 25.6473 250.737 25.5796 250.614 25.5796V25.5796Z" fill="#EAA895"/>
<path d="M249.18 26.9784C249.339 26.8922 249.492 26.804 249.639 26.714C249.599 26.6963 249.554 26.6863 249.507 26.6863C249.338 26.6862 249.2 26.8142 249.18 26.9784Z" fill="#EAA895"/>
<path d="M248.279 19.771C248.32 19.8037 248.37 19.8268 248.424 19.8363C248.376 19.8144 248.328 19.7925 248.279 19.771Z" fill="#EAA895"/>
<path d="M247.374 20.2869C247.192 20.2869 247.043 20.435 247.043 20.6177C247.043 20.8004 247.192 20.9487 247.374 20.9487C247.557 20.9487 247.705 20.8005 247.705 20.6177C247.705 20.4351 247.557 20.2869 247.374 20.2869Z" fill="#EAA895"/>
<path d="M248.481 21.3135C248.299 21.3135 248.15 21.4616 248.15 21.6443C248.15 21.827 248.299 21.9753 248.481 21.9753C248.664 21.9753 248.812 21.8271 248.812 21.6443C248.812 21.4615 248.664 21.3135 248.481 21.3135Z" fill="#EAA895"/>
<path d="M247.374 22.4199C247.192 22.4199 247.043 22.5681 247.043 22.7508C247.043 22.9335 247.192 23.0817 247.374 23.0817C247.557 23.0817 247.705 22.9336 247.705 22.7508C247.705 22.5682 247.557 22.4199 247.374 22.4199Z" fill="#EAA895"/>
<path d="M248.481 23.4465C248.299 23.4465 248.15 23.5947 248.15 23.7774C248.15 23.9601 248.299 24.1083 248.481 24.1083C248.664 24.1083 248.812 23.9602 248.812 23.7774C248.812 23.5946 248.664 23.4465 248.481 23.4465Z" fill="#EAA895"/>
<path d="M247.374 24.5532C247.192 24.5532 247.043 24.7014 247.043 24.8841C247.043 25.0668 247.192 25.2149 247.374 25.2149C247.557 25.2149 247.705 25.0668 247.705 24.8841C247.705 24.7015 247.557 24.5532 247.374 24.5532Z" fill="#EAA895"/>
<path d="M248.481 25.5796C248.299 25.5796 248.15 25.7277 248.15 25.9104C248.15 26.0931 248.299 26.2414 248.481 26.2414C248.664 26.2414 248.812 26.0932 248.812 25.9104C248.812 25.7277 248.664 25.5796 248.481 25.5796Z" fill="#EAA895"/>
<path d="M247.374 26.6863C247.192 26.6863 247.043 26.8344 247.043 27.0171C247.043 27.1998 247.192 27.348 247.374 27.348C247.557 27.348 247.705 27.1998 247.705 27.0171C247.705 26.8344 247.557 26.6863 247.374 26.6863Z" fill="#EAA895"/>
<path d="M245.241 18.8157C245.273 18.8157 245.302 18.81 245.331 18.8017C245.228 18.7769 245.124 18.7527 245.02 18.729C245.078 18.7823 245.156 18.8157 245.241 18.8157Z" fill="#EAA895"/>
<path d="M246.348 19.842C246.531 19.842 246.679 19.6938 246.679 19.511C246.679 19.3282 246.531 19.1802 246.348 19.1802C246.165 19.1802 246.017 19.3283 246.017 19.511C246.017 19.6937 246.165 19.842 246.348 19.842Z" fill="#EAA895"/>
<path d="M246.017 25.9104C246.017 26.0931 246.165 26.2414 246.348 26.2414C246.531 26.2414 246.679 26.0932 246.679 25.9104C246.679 25.7277 246.531 25.5796 246.348 25.5796C246.165 25.5796 246.017 25.7277 246.017 25.9104Z" fill="#EAA895"/>
<path d="M244.91 27.0171C244.91 27.1998 245.059 27.348 245.241 27.348C245.424 27.348 245.572 27.1998 245.572 27.0171C245.572 26.8344 245.424 26.6863 245.241 26.6863C245.059 26.6863 244.91 26.8344 244.91 27.0171Z" fill="#EAA895"/>
<path d="M246.348 27.7129C246.165 27.7129 246.017 27.861 246.017 28.0437C246.017 28.0998 246.032 28.152 246.057 28.1983C246.268 28.1395 246.474 28.0785 246.676 28.0148C246.661 27.8459 246.521 27.7129 246.348 27.7129V27.7129Z" fill="#EAA895"/>
<path d="M242.777 18.4847C242.777 18.6674 242.925 18.8157 243.108 18.8157C243.291 18.8157 243.439 18.6675 243.439 18.4847C243.439 18.4644 243.437 18.4448 243.433 18.4255C243.229 18.3933 243.023 18.3631 242.815 18.335C242.792 18.3802 242.777 18.4306 242.777 18.4847V18.4847Z" fill="#EAA895"/>
<path d="M244.546 19.511C244.546 19.3283 244.398 19.1802 244.215 19.1802C244.032 19.1802 243.884 19.3283 243.884 19.511C243.884 19.6937 244.032 19.842 244.215 19.842C244.398 19.842 244.546 19.6937 244.546 19.511Z" fill="#EAA895"/>
<path d="M242.413 19.511C242.413 19.3283 242.265 19.1802 242.082 19.1802C241.899 19.1802 241.751 19.3283 241.751 19.511C241.751 19.6937 241.899 19.842 242.082 19.842C242.265 19.842 242.413 19.6937 242.413 19.511Z" fill="#EAA895"/>
<path d="M243.884 28.0437C243.884 28.2264 244.032 28.3747 244.215 28.3747C244.398 28.3747 244.546 28.2265 244.546 28.0437C244.546 27.861 244.398 27.7129 244.215 27.7129C244.032 27.7129 243.884 27.861 243.884 28.0437Z" fill="#EAA895"/>
<path d="M241.751 28.0437C241.751 28.2264 241.899 28.3747 242.082 28.3747C242.265 28.3747 242.413 28.2265 242.413 28.0437C242.413 27.861 242.265 27.7129 242.082 27.7129C241.899 27.7129 241.751 27.861 241.751 28.0437Z" fill="#EAA895"/>
<path d="M241.306 18.4847C241.306 18.302 241.158 18.1538 240.975 18.1538C240.792 18.1538 240.644 18.302 240.644 18.4847C240.644 18.6674 240.792 18.8156 240.975 18.8156C241.158 18.8156 241.306 18.6675 241.306 18.4847Z" fill="#EAA895"/>
<path d="M240.975 28.8193C240.823 28.8193 240.697 28.9219 240.658 29.061C240.866 29.0486 241.073 29.0342 241.278 29.0178C241.227 28.9011 241.111 28.8193 240.975 28.8193V28.8193Z" fill="#EAA895"/>
<path d="M239.169 29.1137C239.151 28.9484 239.012 28.8193 238.842 28.8193C238.672 28.8193 238.534 28.9479 238.515 29.1127C238.613 29.1137 238.711 29.1158 238.81 29.1158C238.93 29.1158 239.05 29.115 239.169 29.1137Z" fill="#EAA895"/>
<path d="M236.936 18.2448C236.876 18.1888 236.797 18.1538 236.709 18.1538C236.645 18.1538 236.586 18.1728 236.535 18.2043C236.669 18.2168 236.803 18.2306 236.936 18.2448Z" fill="#EAA895"/>
<path d="M237.027 29.0639C237.014 29.018 236.992 28.9765 236.963 28.9409C236.783 28.9604 236.601 28.9785 236.418 28.9948C236.414 29.0038 236.408 29.0123 236.404 29.0218C236.61 29.0378 236.818 29.0518 237.027 29.0639V29.0639Z" fill="#EAA895"/>
<path d="M245.569 20.6206C245.569 20.4379 245.421 20.2898 245.239 20.2898C245.056 20.2898 244.908 20.4379 244.908 20.6206C244.908 20.8033 245.056 20.9515 245.239 20.9515C245.421 20.9516 245.569 20.8034 245.569 20.6206Z" fill="#EAA895"/>
<path d="M246.671 21.6443C246.671 21.4616 246.523 21.3135 246.34 21.3135C246.158 21.3135 246.01 21.4616 246.01 21.6443C246.01 21.827 246.158 21.9752 246.34 21.9752C246.523 21.9752 246.671 21.827 246.671 21.6443Z" fill="#EAA895"/>
<path d="M238.81 26.6126C243.323 26.6126 246.982 25.2612 246.982 23.5941C246.982 21.9271 243.323 20.5757 238.81 20.5757C234.297 20.5757 230.638 21.9271 230.638 23.5941C230.638 25.2612 234.297 26.6126 238.81 26.6126Z" fill="#E9C278"/>
<path d="M252.414 23.5848H252.361C252.35 20.254 246.402 17.6462 238.81 17.646V9.9388H238.758C238.746 6.60794 232.798 4 225.206 4C217.614 4 211.666 6.60784 211.655 9.9388H211.603V17.646C211.603 17.646 211.603 17.646 211.603 17.646C204.011 17.646 198.063 20.2539 198.052 23.5848H198V40.0686H198.054C198.175 43.3548 204.082 45.9144 211.603 45.9144C219.124 45.9144 225.031 43.3548 225.152 40.0686H225.207H225.261C225.381 43.3548 231.289 45.9144 238.81 45.9144C246.331 45.9144 252.238 43.3548 252.359 40.0686H252.414V23.5848H252.414ZM251.508 23.5943C251.508 26.3561 245.693 28.6892 238.81 28.6892C231.926 28.6892 226.111 26.356 226.111 23.5943C226.111 20.8325 231.926 18.4994 238.81 18.4994C245.693 18.4993 251.508 20.8325 251.508 23.5943V23.5943ZM225.206 4.85335C232.09 4.85335 237.905 7.18655 237.905 9.94829C237.905 12.7099 232.09 15.0432 225.206 15.0432C218.323 15.0432 212.508 12.71 212.508 9.94829C212.508 7.18655 218.323 4.85335 225.206 4.85335V4.85335ZM211.603 18.4993C218.486 18.4993 224.301 20.8325 224.301 23.5942C224.301 26.356 218.486 28.6891 211.603 28.6891C204.72 28.6891 198.905 26.3559 198.905 23.5942C198.905 20.8325 204.72 18.4993 211.603 18.4993V18.4993Z" fill="#31373D"/>
</svg>
