<?xml version="1.0" encoding="UTF-8" standalone="no"?>
<!DOCTYPE svg PUBLIC "-//W3C//DTD SVG 1.1//EN" "http://www.w3.org/Graphics/SVG/1.1/DTD/svg11.dtd">
<svg version="1.1" xmlns="http://www.w3.org/2000/svg" xmlns:xlink="http://www.w3.org/1999/xlink" preserveAspectRatio="xMidYMid meet" viewBox="11.990940312107014 15.448731786526388 532.2630748597427 315.7193310345331" width="528.26" height="311.72"><defs><path d="M364.97 170.32C351.42 161.02 338.34 151.08 324.9 141.64C285.73 114.13 242.42 102.09 195.02 98.61C184.13 97.81 173.27 97.87 162.45 98.77C154.53 99.43 148.13 100.86 148.06 101.37C148 101.84 147.95 102.31 147.95 102.31C147.39 107.85 146.96 114.9 147.14 122.83C147.44 129.07 148.1 135.79 149.41 142.82C149.51 143.44 151.4 154.03 159.72 161.64C165.58 167 172.41 168.36 172.57 168.38C172.59 168.38 172.82 168.41 172.85 168.41C173.29 168.49 219.45 172.8 257.12 180.56C257.55 180.64 305.73 192.14 322.99 199.91C324.29 200.4 355.42 213.56 378.64 213.56C382.95 213.56 386.76 213.11 390.04 212.19C396.18 210.51 402.15 205.03 404.2 202.45C406.25 199.87 407.51 197.46 407.44 197.38C407.36 197.3 403.37 195.47 398.85 192.68C396.12 191.01 393.47 189.19 390.83 187.4C382.28 181.61 373.48 176.16 364.97 170.32Z" id="a1jwoA9JIs"></path><path d="M445.17 159.13C445.17 159.13 445.17 159.12 445.17 159.12C440.71 157.27 435.84 155.42 430.63 153.71C413.42 148.02 392.44 143.75 370.4 145.34C362.47 145.91 362.06 144.56 369.76 142.61C383.23 139.24 405.55 136.44 432.23 143.91C435.51 144.85 438.84 145.94 442.25 147.21C447.71 149.23 449.6 145.24 445.93 138.19C444.29 135.07 442.32 131.52 439.99 127.66C435.88 120.86 426.27 112.91 418.65 110.68C397.74 104.54 368.79 102.66 333.65 117.18C332.8 117.5 331.95 117.85 331.09 118.22C329.68 118.82 329.22 118.76 330.08 118.07C330.51 117.72 331.05 117.31 331.67 116.85C340.78 109.85 369.02 91.77 408.69 99.35C416.49 100.84 418.58 97.93 413.2 92.08C409.76 88.34 406.06 84.56 402.07 80.79C396.3 75.34 384.94 70.1 377.02 69.78C357.7 68.98 333.23 72.67 306.43 87.87C299.52 91.79 298.27 90.43 304.34 85.32C315.49 75.92 335.89 63.3 365.81 62.15C373.75 61.84 375.01 58.62 368.34 54.33C363.22 51.04 357.84 47.86 352.16 44.82C345.15 41.07 332.83 38.51 324.98 39.76C305.95 42.76 283.82 51.29 263.03 71.42C257.33 76.95 256.11 76.13 260.83 69.75C269.23 58.41 284.83 42.27 309.3 34.85C316.9 32.55 317.84 29.67 310.94 27.43C306.87 26.11 302.67 24.86 298.35 23.7C298.35 23.7 295.96 22.9 291.73 21.82C288.05 20.88 278.76 21.84 271.37 24.76C254.6 31.38 236.24 42.94 220.32 63C215.39 69.22 213.67 68.44 217.3 61.38C223.01 50.26 234.17 34.58 254.74 23.46C261.73 19.68 261.45 16.78 253.51 16.53C250.39 16.44 247.17 16.42 243.84 16.5C235.91 16.68 223.86 20.59 217.46 25.29C205.94 33.75 193.63 45.6 181.83 62.21C177.24 68.69 176 68.11 179.42 60.94C183.35 52.71 189.48 41.82 198.13 31.6C203.26 25.54 201.85 22.78 194.38 25.51C190.62 26.88 186.85 28.43 183.09 30.19C175.9 33.57 166.04 41.72 161.34 48.11C156.97 54.05 152.67 60.84 148.72 68.54C145.09 75.6 143.78 75.22 146.31 67.69C147.1 65.32 148.06 62.74 149.21 60.02C152.31 52.71 150.64 51.19 144.96 56.73C135.77 65.69 127.05 76.52 119.15 89.63C119.15 89.63 117.55 92.03 116.22 94.99C114.83 98.06 120.34 98.39 128.13 96.83C136.92 95.07 146.96 93.45 148.46 93.2C149.76 92.97 151.06 92.85 152.35 92.65C167.88 90.28 183.51 89.66 199.2 90.81C246.59 94.29 289.9 106.33 329.08 133.84C342.52 143.28 355.6 153.23 369.14 162.52C377.67 168.37 386.45 173.8 395 179.6C400.32 183.21 405.67 186.85 411.48 189.43C414.35 190.7 417.32 191.8 420.51 192.36C433.38 194.62 445.18 191.52 457.29 189.27C465.09 187.83 468.13 182.66 464.45 176.49C460.82 170.33 452.5 162.18 445.17 159.13Z" id="jGSA5mqUI"></path><path d="M110.36 269.05C141.67 268.45 392.16 263.68 423.47 263.08C423.47 263.08 424.14 263.14 424.14 262.58C424.15 257.5 424.18 247.31 424.2 242.18C424.2 241.72 423.57 241.77 423.57 241.77C392.29 240.99 142.02 234.79 110.74 234.01C110.74 234.01 109.68 234.01 109.68 234.87C109.65 243.42 109.6 259.98 109.58 268.35C109.58 269.04 110.2 268.91 110.36 269.05Z" id="cvYvNhaM2"></path><path d="M90.81 233.51C84.79 233.37 36.69 232.18 30.68 232.03C21.98 231.81 14.84 238.75 14.82 247.46C14.82 248.22 14.8 254.29 14.8 255.05C14.77 263.75 21.87 270.74 30.57 270.57C36.57 270.45 84.58 269.54 90.58 269.43C90.58 269.43 92.03 269.39 92.03 268.35C92.06 260.02 92.1 242.97 92.13 234.64C92.13 233.38 91.07 233.74 90.81 233.51ZM51.2 258.84C49.46 260.12 47.43 260.33 46.68 259.3C45.93 258.28 46.74 256.4 48.48 255.13C50.22 253.85 49.9 252.54 47.76 252.21C45.63 251.88 44.04 250.59 44.24 249.34C44.43 248.09 46.33 247.33 48.47 247.66C50.6 247.99 51.3 246.83 50.02 245.09C48.75 243.35 48.54 241.31 49.56 240.56C50.58 239.81 52.46 240.62 53.74 242.36C55.01 244.11 56.33 243.78 56.65 241.65C56.98 239.52 58.27 237.93 59.53 238.12C60.78 238.31 61.53 240.22 61.21 242.35C60.88 244.48 62.03 245.19 63.77 243.91C65.51 242.63 67.55 242.42 68.3 243.44C69.05 244.47 68.24 246.34 66.5 247.62C64.76 248.9 65.08 250.21 67.21 250.54C69.35 250.87 70.93 252.16 70.74 253.41C70.55 254.66 68.65 255.42 66.51 255.09C64.38 254.76 63.68 255.92 64.95 257.66C66.23 259.4 66.44 261.44 65.42 262.18C64.4 262.94 62.52 262.12 61.24 260.38C59.96 258.64 58.65 258.96 58.32 261.1C58 263.23 56.7 264.82 55.45 264.63C54.2 264.44 53.44 262.53 53.77 260.4C54.1 258.26 52.95 257.56 51.2 258.84Z" id="aQFWzvSov"></path><path d="M446.25 242.33C444.92 242.29 434.3 242.03 432.97 242C432.97 242 432.66 241.99 432.65 242.31C432.64 247.43 432.61 257.39 432.59 262.52C432.59 262.9 433 262.9 433 262.9C434.32 262.88 444.89 262.68 446.21 262.65C446.21 262.65 446.62 262.71 446.62 262.27C446.64 257.29 446.66 247.61 446.68 242.72C446.68 242.29 446.33 242.4 446.25 242.33Z" id="a7IsjQCG4D"></path><path d="M455.5 262.48C462.49 262.34 518.42 261.28 525.41 261.14C534.11 260.98 541.24 257.21 541.25 252.76C541.27 248.32 534.16 244.5 525.46 244.29C518.47 244.12 462.55 242.73 455.56 242.56C455.56 242.56 455.14 242.55 455.14 242.94C455.12 247.74 455.09 257.35 455.08 262.15C455.08 262.47 455.42 262.41 455.5 262.48Z" id="a1KTo4Za2A"></path><path d="M443.73 291.83C412.42 292.7 161.99 299.63 130.68 300.5C130.68 300.5 130.01 300.45 130.02 301.01C130.05 306.08 130.11 316.28 130.14 321.4C130.14 321.87 130.76 321.82 130.76 321.82C162.05 322.32 412.36 326.37 443.65 326.87C443.65 326.87 444.71 326.87 444.71 326.01C444.66 317.46 444.56 300.9 444.52 292.53C444.51 291.83 443.89 291.97 443.73 291.83Z" id="e6gaaxM3u"></path><path d="M463.59 327.2C469.6 327.29 517.71 328.07 523.72 328.17C532.42 328.31 539.5 321.3 539.45 312.6C539.45 311.84 539.41 305.77 539.41 305.01C539.36 296.31 532.2 289.38 523.5 289.63C517.5 289.79 469.5 291.12 463.5 291.29C463.5 291.29 462.05 291.33 462.06 292.37C462.11 300.7 462.21 317.76 462.25 326.08C462.26 327.35 463.32 326.97 463.59 327.2ZM502.97 301.53C504.7 300.24 506.73 300.01 507.49 301.03C508.25 302.04 507.46 303.93 505.72 305.22C504 306.51 504.33 307.83 506.47 308.13C508.6 308.44 510.21 309.72 510.02 310.97C509.84 312.23 507.94 313 505.8 312.69C503.67 312.38 502.97 313.54 504.27 315.27C505.56 317 505.79 319.04 504.78 319.79C503.76 320.55 501.87 319.76 500.58 318.03C499.29 316.3 497.98 316.63 497.67 318.77C497.36 320.9 496.08 322.51 494.83 322.32C493.57 322.14 492.8 320.24 493.11 318.11C493.42 315.97 492.26 315.28 490.53 316.57C488.8 317.86 486.77 318.09 486.01 317.08C485.25 316.06 486.04 314.17 487.77 312.88C489.5 311.59 489.17 310.28 487.04 309.97C484.9 309.66 483.3 308.38 483.48 307.13C483.66 305.88 485.56 305.11 487.69 305.41C489.83 305.72 490.52 304.56 489.23 302.83C487.94 301.1 487.71 299.07 488.73 298.31C489.74 297.55 491.63 298.35 492.92 300.08C494.21 301.81 495.52 301.47 495.83 299.34C496.14 297.2 497.42 295.6 498.67 295.78C499.93 295.96 500.7 297.86 500.39 300C500.08 302.13 501.24 302.83 502.97 301.53Z" id="c3oEvNkpbN"></path><path d="M108.08 321.45C109.41 321.47 120.03 321.64 121.36 321.67C121.36 321.67 121.68 321.67 121.68 321.35C121.65 316.23 121.59 306.27 121.56 301.14C121.56 300.75 121.15 300.76 121.15 300.76C119.83 300.79 109.27 301.09 107.95 301.13C107.95 301.13 107.54 301.07 107.54 301.51C107.57 306.49 107.62 316.17 107.65 321.06C107.65 321.49 108 321.37 108.08 321.45Z" id="a4yB9a054t"></path><path d="M98.66 301.38C91.67 301.57 35.75 303.12 28.76 303.32C20.06 303.56 12.97 307.39 12.99 311.83C13.02 316.28 20.16 320.03 28.86 320.17C35.85 320.28 91.78 321.19 98.77 321.3C98.77 321.3 99.19 321.3 99.19 320.91C99.17 316.11 99.11 306.51 99.08 301.71C99.08 301.38 98.74 301.45 98.66 301.38Z" id="h2WXFV47L"></path></defs><g><g><use xlink:href="#a1jwoA9JIs" opacity="1" fill="#c7ae58" fill-opacity="1"></use><g><use xlink:href="#a1jwoA9JIs" opacity="1" fill-opacity="0" stroke="#000000" stroke-width="1" stroke-opacity="0"></use></g></g><g><use xlink:href="#jGSA5mqUI" opacity="1" fill="#c7ae58" fill-opacity="1"></use><g><use xlink:href="#jGSA5mqUI" opacity="1" fill-opacity="0" stroke="#000000" stroke-width="1" stroke-opacity="0"></use></g></g><g><use xlink:href="#cvYvNhaM2" opacity="1" fill="#c7ae58" fill-opacity="1"></use><g><use xlink:href="#cvYvNhaM2" opacity="1" fill-opacity="0" stroke="#000000" stroke-width="1" stroke-opacity="0"></use></g></g><g><use xlink:href="#aQFWzvSov" opacity="1" fill="#c7ae58" fill-opacity="1"></use><g><use xlink:href="#aQFWzvSov" opacity="1" fill-opacity="0" stroke="#000000" stroke-width="1" stroke-opacity="0"></use></g></g><g><use xlink:href="#a7IsjQCG4D" opacity="1" fill="#c7ae58" fill-opacity="1"></use><g><use xlink:href="#a7IsjQCG4D" opacity="1" fill-opacity="0" stroke="#000000" stroke-width="1" stroke-opacity="0"></use></g></g><g><use xlink:href="#a1KTo4Za2A" opacity="1" fill="#c7ae58" fill-opacity="1"></use><g><use xlink:href="#a1KTo4Za2A" opacity="1" fill-opacity="0" stroke="#000000" stroke-width="1" stroke-opacity="0"></use></g></g><g><use xlink:href="#e6gaaxM3u" opacity="1" fill="#c7ae58" fill-opacity="1"></use><g><use xlink:href="#e6gaaxM3u" opacity="1" fill-opacity="0" stroke="#000000" stroke-width="1" stroke-opacity="0"></use></g></g><g><use xlink:href="#c3oEvNkpbN" opacity="1" fill="#c7ae58" fill-opacity="1"></use><g><use xlink:href="#c3oEvNkpbN" opacity="1" fill-opacity="0" stroke="#000000" stroke-width="1" stroke-opacity="0"></use></g></g><g><use xlink:href="#a4yB9a054t" opacity="1" fill="#c7ae58" fill-opacity="1"></use><g><use xlink:href="#a4yB9a054t" opacity="1" fill-opacity="0" stroke="#000000" stroke-width="1" stroke-opacity="0"></use></g></g><g><use xlink:href="#h2WXFV47L" opacity="1" fill="#c7ae58" fill-opacity="1"></use><g><use xlink:href="#h2WXFV47L" opacity="1" fill-opacity="0" stroke="#000000" stroke-width="1" stroke-opacity="0"></use></g></g></g></svg>